PathFileType	4	(X/Y/Z)	/Users/niels/Desktop/University/Third Semester/Perception and Action/Exam/Gymnastics Motion Tracking/Code for Gym Tracking/Analyzed Data/Webcam_Backflip/temp_id5_2_trajectory_Sports2D/temp_id5_2_trajectory_Sports2D_px_person00.trc
DataRate	CameraRate	NumFrames	NumMarkers	Units	OrigDataRate	OrigDataStartFrame	OrigNumFrames
29.8125	29.8125	10	22	m	29.8125	40	160
Frame#	Time	Hip			RHip			RKnee			RAnkle			RBigToe			RSmallToe			RHeel			LHip			LKnee			LAnkle			LBigToe			LSmallToe			LHeel			Neck			Head			Nose			RShoulder			RElbow			RWrist			LShoulder			LElbow			LWrist		
		X1	Y1	Z1	X2	Y2	Z2	X3	Y3	Z3	X4	Y4	Z4	X5	Y5	Z5	X6	Y6	Z6	X7	Y7	Z7	X8	Y8	Z8	X9	Y9	Z9	X10	Y10	Z10	X11	Y11	Z11	X12	Y12	Z12	X13	Y13	Z13	X14	Y14	Z14	X15	Y15	Z15	X16	Y16	Z16	X17	Y17	Z17	X18	Y18	Z18	X19	Y19	Z19	X20	Y20	Z20	X21	Y21	Z21	X22	Y22	Z22
40	1.341719077568134	0.9580443015929431	-0.4884951105246363	0.0	0.9588621140071157	-0.48988312069687057	0.0	1.0306279030075733	-0.55628055992092	0.0	1.0027784142464136	-0.6733101646263147	0.0	1.0195444256406667	-0.7085399525465007	0.0	1.0126351565707556	-0.7097025228752231	0.0	0.9922969695526125	-0.6880324508797655	0.0	0.9567647373309147	-0.48888325482268247	0.0	1.0244839653026852	-0.5542910664741061	0.0	1.0026139450250742	-0.6691462632700113	0.0	1.02429356360731	-0.6991947735986167	0.0	1.0189253923022603	-0.7027002581898433	0.0	0.988992212754503	-0.6845768976039741	0.0	0.8721080689699829	-0.38187048309599564	0.0	0.8192028144458441	-0.3289057412330261	0.0	0.8588721007331651	-0.3391205158219551	0.0	0.8695157823133516	-0.38296962160997694	0.0	0.8673928769601756	-0.34825611393777967	0.0	0.8758543569045837	-0.29267104347341766	0.0	0.8719507626868482	-0.3830607911261004	0.0	0.8889212819580179	-0.345847668813375	0.0	0.8880128437733911	-0.3008687288322121	0.0
41	1.3752620545073373	0.953282690026005	-0.46002466218765614	0.0	0.9548185448962702	-0.46089388388471025	0.0	1.0405813492184905	-0.4974154826729927	0.0	1.0208548420350307	-0.613914533441586	0.0	1.0417199118273472	-0.6456395618449501	0.0	1.0358935473511002	-0.6476644425004172	0.0	1.0109953131509952	-0.6283796299459893	0.0	0.9521488174402635	-0.46049730574681524	0.0	1.0339717636108012	-0.49617104638524556	0.0	1.0202118898850907	-0.6095075033269174	0.0	1.0452555144233895	-0.6374864599599892	0.0	1.040187438608054	-0.6407243651753454	0.0	1.0074079513631717	-0.6263565216138794	0.0	0.8565524245933722	-0.3620754717666801	0.0	0.7985498879239716	-0.3159555018886858	0.0	0.8390512049374245	-0.3208410521072812	0.0	0.8547840211216731	-0.36291838233418217	0.0	0.8642488585265147	-0.3442672460949306	0.0	0.8823826062430573	-0.2911553068142463	0.0	0.8569748911949668	-0.36467688603934034	0.0	0.8830213847714099	-0.33802872183973504	0.0	0.8906490597816294	-0.29718903792990914	0.0
42	1.4088050314465406	0.9491719583813704	-0.43717553354565974	0.0	0.9516677854780244	-0.43723161767136187	0.0	1.042369673383416	-0.4379290883270684	0.0	1.0389344306693373	-0.5499104814475412	0.0	1.0650497543623476	-0.5720773079509511	0.0	1.0609566979820333	-0.5756941356172625	0.0	1.0311899794805321	-0.5644588019619408	0.0	0.9476971087850771	-0.43776720175608724	0.0	1.0350779689181089	-0.43829018675149595	0.0	1.0372282999805942	-0.5453274411424529	0.0	1.0660729235417175	-0.5658658902613242	0.0	1.061862256972298	-0.5687419721534892	0.0	1.0270389908692557	-0.563307496781266	0.0	0.8430768565816834	-0.3487849575747151	0.0	0.781829665401699	-0.31010757908778047	0.0	0.8221398926572047	-0.3095170828080149	0.0	0.8437772114893459	-0.3484549213625286	0.0	0.8691084581740606	-0.342913975676735	0.0	0.8970189203653539	-0.2911964608434169	0.0	0.8442812158591868	-0.3531918335950731	0.0	0.8817200923453646	-0.335115019271864	0.0	0.8988666256385064	-0.2962368059402771	0.0
43	1.442348008385744	0.9471762743741317	-0.41884924979366384	0.0	0.9507601175918144	-0.41789580146628535	0.0	1.0334614957265253	-0.38177756293100396	0.0	1.053545566523006	-0.4834415693286884	0.0	1.083818270433756	-0.49097588721069546	0.0	1.0820715189978487	-0.49646443442673766	0.0	1.0493701203705201	-0.4982016865215423	0.0	0.9445096270096021	-0.41962526420949037	0.0	1.0253079791245936	-0.38459866256094605	0.0	1.0502749409545566	-0.47893977966440515	0.0	1.0815138694262694	-0.4871031037118055	0.0	1.0784696347998746	-0.48997595634420316	0.0	1.0450406224473987	-0.4974348719789398	0.0	0.8327202648390848	-0.34278279771273423	0.0	0.769809491782932	-0.3124679966305355	0.0	0.8088798142288441	-0.3060898645319678	0.0	0.8370855506604481	-0.3401502299621844	0.0	0.8785742097006201	-0.3409611552721394	0.0	0.9136438828215315	-0.2895419496546417	0.0	0.8349024464574022	-0.3489823870640643	0.0	0.8824796078238485	-0.33520546929498124	0.0	0.9082565714140212	-0.29552953715130653	0.0
44	1.4758909853249473	0.948082389967469	-0.40297704212423585	0.0	0.9526055322389917	-0.40098680694213423	0.0	1.0138860908239915	-0.3329922322816785	0.0	1.06083247456492	-0.41722724254647586	0.0	1.0919471781117962	-0.4078383124609012	0.0	1.092979201126211	-0.41481012132783235	0.0	1.0610562804915373	-0.43162754193490294	0.0	0.9432731386929184	-0.40406104433779433	0.0	1.0051611137976584	-0.33861464566056565	0.0	1.0558849922272717	-0.4134873323851136	0.0	1.0865081116194606	-0.40676857224799584	0.0	1.0843686777549308	-0.41005951901574983	0.0	1.0575102518165023	-0.43125770467711183	0.0	0.826386258080583	-0.3440955954813058	0.0	0.7633058013324263	-0.3238442017959106	0.0	0.799790181028841	-0.3110355018498441	0.0	0.8347284678229022	-0.33807889688615833	0.0	0.8891201102184199	-0.3366125439190771	0.0	0.9263779837293101	-0.2846918568970489	0.0	0.8296981704055728	-0.35161280745004786	0.0	0.8836752427319254	-0.3367012954349413	0.0	0.9160336163623878	-0.29377292084163825	0.0
45	1.5094339622641506	0.9515600350053063	-0.38736162105674404	0.0	0.9565119120794412	-0.38441217648763853	0.0	0.9859738079024475	-0.2948866298021661	0.0	1.057701888104064	-0.3548230001163915	0.0	1.085127651642069	-0.329706617325476	0.0	1.089021306348945	-0.3372321718251513	0.0	1.0622218111832138	-0.3676615724080505	0.0	0.9439993279197215	-0.388983021254973	0.0	0.9777274231227739	-0.3029054720559981	0.0	1.051597109487337	-0.3528208198500489	0.0	1.0778208251326247	-0.3318388722217253	0.0	1.0757695694414886	-0.3357140894160835	0.0	1.0604827337897826	-0.3680260759231866	0.0	0.8249432686808056	-0.3521917573906836	0.0	0.7634272203977441	-0.3442980984942197	0.0	0.7954727038514368	-0.3244451231784563	0.0	0.8366911529785229	-0.3419906995808448	0.0	0.8980575134552773	-0.3301023844831431	0.0	0.9312990104141223	-0.2775991500524931	0.0	0.8295611550096051	-0.36006724391901607	0.0	0.8849785640978011	-0.3390879939801583	0.0	0.9218615859757411	-0.29162266951363713	0.0
46	1.542976939203354	0.9561114754282389	-0.3704741840171689	0.0	0.9606648770472057	-0.3666815632998891	0.0	0.9533990061699668	-0.2696423613604591	0.0	1.0428096273618987	-0.30028591062443377	0.0	1.0620847972924885	-0.2636802896708317	0.0	1.0684633439808913	-0.2706359229787806	0.0	1.0506693783784389	-0.3102110648905937	0.0	0.9459750340896165	-0.3730254183067917	0.0	0.9473723628645244	-0.2791580521357775	0.0	1.0367054219834617	-0.300825550491701	0.0	1.05481463525828	-0.26867783799925854	0.0	1.051878049614447	-0.27293435761288215	0.0	1.051368396722839	-0.31146330996336236	0.0	0.8293246635636433	-0.3659603161652034	0.0	0.7716483047097048	-0.372451264868753	0.0	0.7969343998424396	-0.34586428541960107	0.0	0.8431445710534021	-0.35118297366725454	0.0	0.9038347099910576	-0.3231733884553443	0.0	0.9272249784806861	-0.2711122877553771	0.0	0.8354716814934365	-0.372927863820242	0.0	0.8871722383141448	-0.34278795780549226	0.0	0.9277991764095332	-0.29152537296746045	0.0
47	1.5765199161425574	0.9595637533674127	-0.35200501534406986	0.0	0.9627492130301453	-0.3475800729930876	0.0	0.9201133616123676	-0.2582219307269662	0.0	1.0167313276856758	-0.2574056007202066	0.0	1.0245557066040025	-0.21536488305401275	0.0	1.0325945026736716	-0.22080558446865514	0.0	1.0264616133315887	-0.26335802231574795	0.0	0.9481037309889108	-0.3560208123289429	0.0	0.9184338938754925	-0.2682294142401892	0.0	1.012171486745097	-0.2606189166372658	0.0	1.0190801357057409	-0.22187133324102581	0.0	1.0148121500243132	-0.22589162283982983	0.0	1.0299549763225808	-0.26516518291363494	0.0	0.8404098046280298	-0.3834647784327651	0.0	0.7894209209052181	-0.4050461985138323	0.0	0.8056601359108585	-0.37365154995915834	0.0	0.8541492407289868	-0.3642423153981733	0.0	0.9059697956623932	-0.31816903094019844	0.0	0.9155214524170793	-0.2687237859834845	0.0	0.8483254948699644	-0.38836562648301187	0.0	0.8918301156898918	-0.34811090231367053	0.0	0.937237152229987	-0.2961510405272371	0.0
48	1.6100628930817606	0.9598649425617127	-0.3329023110809132	0.0	0.9608509440310237	-0.3282626833418085	0.0	0.8896644395669011	-0.2603324730525135	0.0	0.9814163089787002	-0.2290852438767327	0.0	0.9763248892860475	-0.18812135174213465	0.0	0.9849080315642045	-0.1914896447407824	0.0	0.9913470615862409	-0.2305177680665852	0.0	0.9492810201592138	-0.3387717176779349	0.0	0.8943483863893091	-0.26980274066866233	0.0	0.979944525318437	-0.23416288428990023	0.0	0.9735741051182387	-0.19408876051630825	0.0	0.9686858834973889	-0.19688632408876344	0.0	0.9981803496711803	-0.23203613452980573	0.0	0.8585182926608598	-0.4018428292842307	0.0	0.8172616319024686	-0.43730836195444994	0.0	0.8230349877295597	-0.40436130469579146	0.0	0.869318347810192	-0.3790192591473085	0.0	0.9049324632893212	-0.31710982833415746	0.0	0.8993531271732705	-0.2733298370190366	0.0	0.8684172598620932	-0.40395848545901414	0.0	0.9007405771317961	-0.354491283670322	0.0	0.9528157065375293	-0.306643130013956	0.0
49	1.6436058700209641	0.9557197401460048	-0.31497063314045426	0.0	0.9540724825704625	-0.3108199282160201	0.0	0.8649102523505894	-0.2744778107452494	0.0	0.9396736707043527	-0.21729422198919385	0.0	0.9223129016682426	-0.1834352856416796	0.0	0.9302544025416495	-0.18451027675612744	0.0	0.9480961658141279	-0.21417298195277842	0.0	0.9483636829273588	-0.3223818463631245	0.0	0.8770780728809602	-0.28214631457222444	0.0	0.9424184023832519	-0.22261653450853958	0.0	0.9222655735698347	-0.18646869413598932	0.0	0.9186627310080225	-0.18693191116001395	0.0	0.9591182865074525	-0.2141668037886705	0.0	0.8827228544929856	-0.4176945210720157	0.0	0.8538559981226531	-0.4640657579126805	0.0	0.8492576627176505	-0.4330755802703394	0.0	0.8877856850138955	-0.3929407264929015	0.0	0.9019589896194701	-0.3210396490653946	0.0	0.8826252724229458	-0.2864269864044048	0.0	0.8946058185167346	-0.41662537009798145	0.0	0.9151559113537434	-0.3607272227627213	0.0	0.9746351051594915	-0.3220545378673935	0.0
